<svg width="458" height="117" viewBox="0 0 458 117" fill="none" xmlns="http://www.w3.org/2000/svg">
<path d="M107 111V62H112.904V89.93C114.591 88.95 116.213 87.83 117.77 86.57C119.327 85.31 120.776 83.98 122.116 82.58C123.457 81.18 124.603 79.8033 125.555 78.45C126.55 77.0967 127.306 75.8833 127.826 74.81H134.767C133.946 76.5367 132.886 78.2867 131.588 80.06C130.334 81.7867 128.928 83.42 127.371 84.96C125.814 86.4533 124.171 87.7367 122.441 88.81C120.754 89.8833 119.024 90.6533 117.251 91.12V91.96C119.413 91.7733 121.316 92.0533 122.96 92.8C124.603 93.5467 126.052 94.62 127.306 96.02C128.604 97.42 129.793 99.03 130.875 100.85C131.956 102.623 132.994 104.513 133.989 106.52L136 111H129.318L127.89 107.78C126.723 105.4 125.533 103.253 124.322 101.34C123.111 99.38 121.727 97.84 120.17 96.72C118.613 95.6 116.753 95.04 114.591 95.04H112.904V111H107Z" fill="white"/>
<path d="M88.4089 111C85.2394 111 82.536 110.514 80.2987 109.541C78.108 108.569 76.3136 107.265 74.9153 105.63C73.5636 103.994 72.5614 102.116 71.9089 99.9945C71.303 97.8729 71 95.663 71 93.3646C71 90.8453 71.3496 88.4807 72.0487 86.2707C72.7479 84.0608 73.7966 82.116 75.1949 80.4365C76.6398 78.7127 78.411 77.3867 80.5085 76.4586C82.6525 75.4862 85.1462 75 87.9894 75C90.7394 75 93.1631 75.4641 95.2606 76.3923C97.3581 77.2762 99.0593 78.5359 100.364 80.1713C101.716 81.8066 102.578 83.7514 102.951 86.0055L96.8686 87.5967C96.7754 86.3591 96.3792 85.1657 95.6801 84.0166C95.0275 82.8674 94.0487 81.9392 92.7436 81.232C91.4386 80.4807 89.8305 80.105 87.9195 80.105C86.1017 80.105 84.5403 80.4365 83.2352 81.0994C81.9767 81.7624 80.9047 82.6906 80.0191 83.884C79.1801 85.0773 78.5275 86.4696 78.0614 88.0608C77.6419 89.6519 77.4322 91.3757 77.4322 93.232C77.4322 95.7956 77.8051 98.0276 78.5508 99.9282C79.3432 101.829 80.5551 103.309 82.1864 104.37C83.8178 105.431 85.9153 105.961 88.4788 105.961C90.3898 105.961 92.0212 105.652 93.3729 105.033C94.7246 104.37 95.7966 103.464 96.589 102.315C97.3814 101.122 97.8941 99.7293 98.1271 98.1381L104 99.3978C103.674 101.298 103.068 102.978 102.182 104.436C101.297 105.895 100.178 107.11 98.8263 108.083C97.4746 109.011 95.9131 109.718 94.142 110.204C92.4174 110.735 90.5064 111 88.4089 111Z" fill="white"/>
<path d="M48.7315 111C46.915 111 45.2714 110.646 43.8009 109.939C42.3303 109.188 41.1626 108.105 40.2975 106.691C39.4325 105.232 39 103.398 39 101.188C39 99.5525 39.2811 98.116 39.8434 96.8785C40.4489 95.6409 41.3572 94.5801 42.5682 93.6961C43.8225 92.8122 45.4228 92.0829 47.3691 91.5083C49.3154 90.9337 51.6943 90.4475 54.5056 90.0497C56.1059 89.8287 57.4034 89.6077 58.3982 89.3867C59.4362 89.1657 60.1931 88.8122 60.6689 88.326C61.1447 87.7956 61.3825 87.0221 61.3825 86.0055C61.3825 84.326 60.8203 82.9116 59.6957 81.7624C58.5712 80.6133 56.7979 80.0387 54.3758 80.0387C53.1216 80.0387 51.8456 80.2597 50.5481 80.7017C49.2506 81.1436 48.1044 81.895 47.1096 82.9558C46.1581 83.9724 45.5526 85.4088 45.2931 87.2652L39.8434 85.4088C40.1894 83.8177 40.7517 82.3812 41.5302 81.0994C42.352 79.8177 43.39 78.7348 44.6443 77.8508C45.8986 76.9227 47.3475 76.2155 48.991 75.7293C50.6778 75.2431 52.5377 75 54.5705 75C57.3818 75 59.7174 75.4862 61.5772 76.4586C63.4802 77.4309 64.8859 78.9337 65.7942 80.9669C66.7457 82.9558 67.2215 85.5193 67.2215 88.6575V96.2818C67.2215 97.6519 67.2431 99.1547 67.2864 100.79C67.3729 102.381 67.481 103.994 67.6107 105.63C67.7405 107.221 67.8702 108.724 68 110.138H62.5503C62.4206 108.724 62.2908 107.309 62.1611 105.895C62.0746 104.481 62.0097 103.066 61.9664 101.652H61.123C60.4743 103.287 59.6092 104.812 58.528 106.227C57.4467 107.641 56.0843 108.79 54.4407 109.674C52.8404 110.558 50.9374 111 48.7315 111ZM50.4832 106.094C51.4347 106.094 52.3863 105.939 53.3378 105.63C54.3326 105.32 55.3057 104.812 56.2573 104.105C57.252 103.398 58.182 102.492 59.047 101.387C59.9553 100.282 60.7554 98.9558 61.4474 97.4088V90.779L63.1342 91.1105C62.4422 91.8177 61.5123 92.3481 60.3445 92.7017C59.22 93.0553 57.9657 93.3425 56.5817 93.5635C55.1976 93.7845 53.8136 94.0276 52.4295 94.2928C51.0455 94.5138 49.7696 94.8674 48.6018 95.3536C47.4773 95.7956 46.569 96.4365 45.877 97.2762C45.1849 98.116 44.8389 99.2652 44.8389 100.724C44.8389 102.492 45.3579 103.84 46.396 104.768C47.434 105.652 48.7964 106.094 50.4832 106.094Z" fill="white"/>
<path d="M0 111V65H16.9494C19.5175 65 21.8521 65.2323 23.9533 65.697C26.1012 66.1616 27.9222 66.8818 29.4163 67.8576C30.9105 68.7869 32.0545 70.0182 32.8482 71.5515C33.6887 73.0848 34.1089 74.9202 34.1089 77.0576C34.1089 78.8232 33.7588 80.3798 33.0584 81.7273C32.358 83.0747 31.2374 84.1667 29.6965 85.003C28.2023 85.8394 26.2179 86.4899 23.7432 86.9545V87.7212C28.0389 88.0929 31.144 89.2545 33.0584 91.2061C35.0195 93.1576 36 95.7131 36 98.8727C36 101.475 35.3697 103.682 34.1089 105.494C32.8949 107.26 31.0039 108.63 28.4358 109.606C25.9144 110.535 22.6459 111 18.6304 111H0ZM6.16342 105.564H19.2607C22.7626 105.564 25.3541 104.983 27.035 103.821C28.7626 102.613 29.6265 100.778 29.6265 98.3152C29.6265 95.4808 28.4358 93.3667 26.0545 91.9727C23.7198 90.5323 20.1712 89.8121 15.4086 89.8121H6.16342V105.564ZM6.16342 85.0727H14.1479C18.7237 85.0727 22.1323 84.4687 24.3735 83.2606C26.6148 82.0061 27.7354 80.1475 27.7354 77.6848C27.7354 75.2222 26.7549 73.3869 24.7938 72.1788C22.8794 70.9707 19.9611 70.3667 16.0389 70.3667H6.16342V85.0727Z" fill="white"/>
<path d="M429 111V62H434.904V89.93C436.591 88.95 438.213 87.83 439.77 86.57C441.327 85.31 442.776 83.98 444.116 82.58C445.457 81.18 446.603 79.8033 447.555 78.45C448.55 77.0967 449.306 75.8833 449.826 74.81H456.767C455.946 76.5367 454.886 78.2867 453.588 80.06C452.334 81.7867 450.928 83.42 449.371 84.96C447.814 86.4533 446.171 87.7367 444.441 88.81C442.754 89.8833 441.024 90.6533 439.251 91.12V91.96C441.413 91.7733 443.316 92.0533 444.96 92.8C446.603 93.5467 448.052 94.62 449.306 96.02C450.604 97.42 451.793 99.03 452.875 100.85C453.956 102.623 454.994 104.513 455.989 106.52L458 111H451.318L449.89 107.78C448.723 105.4 447.533 103.253 446.322 101.34C445.111 99.38 443.727 97.84 442.17 96.72C440.613 95.6 438.753 95.04 436.591 95.04H434.904V111H429Z" fill="white"/>
<path d="M411.826 111C408.945 111 406.487 110.514 404.453 109.541C402.462 108.569 400.831 107.265 399.559 105.63C398.331 103.994 397.419 102.116 396.826 99.9945C396.275 97.8729 396 95.663 396 93.3646C396 90.8453 396.318 88.4807 396.953 86.2707C397.589 84.0608 398.542 82.116 399.814 80.4365C401.127 78.7127 402.737 77.3867 404.644 76.4586C406.593 75.4862 408.86 75 411.445 75C413.945 75 416.148 75.4641 418.055 76.3923C419.962 77.2762 421.508 78.5359 422.695 80.1713C423.924 81.8066 424.708 83.7514 425.047 86.0055L419.517 87.5967C419.432 86.3591 419.072 85.1657 418.436 84.0166C417.843 82.8674 416.953 81.9392 415.767 81.232C414.581 80.4807 413.119 80.105 411.381 80.105C409.729 80.105 408.309 80.4365 407.123 81.0994C405.979 81.7624 405.004 82.6906 404.199 83.884C403.436 85.0773 402.843 86.4696 402.419 88.0608C402.038 89.6519 401.847 91.3757 401.847 93.232C401.847 95.7956 402.186 98.0276 402.864 99.9282C403.585 101.829 404.686 103.309 406.169 104.37C407.653 105.431 409.559 105.961 411.89 105.961C413.627 105.961 415.11 105.652 416.339 105.033C417.568 104.37 418.542 103.464 419.263 102.315C419.983 101.122 420.449 99.7293 420.661 98.1381L426 99.3978C425.703 101.298 425.153 102.978 424.347 104.436C423.542 105.895 422.525 107.11 421.297 108.083C420.068 109.011 418.648 109.718 417.038 110.204C415.47 110.735 413.733 111 411.826 111Z" fill="white"/>
<path d="M373.732 111C371.915 111 370.271 110.646 368.801 109.939C367.33 109.188 366.163 108.105 365.298 106.691C364.433 105.232 364 103.398 364 101.188C364 99.5525 364.281 98.116 364.843 96.8785C365.449 95.6409 366.357 94.5801 367.568 93.6961C368.823 92.8122 370.423 92.0829 372.369 91.5083C374.315 90.9337 376.694 90.4475 379.506 90.0497C381.106 89.8287 382.403 89.6077 383.398 89.3867C384.436 89.1657 385.193 88.8122 385.669 88.326C386.145 87.7956 386.383 87.0221 386.383 86.0055C386.383 84.326 385.82 82.9116 384.696 81.7624C383.571 80.6133 381.798 80.0387 379.376 80.0387C378.122 80.0387 376.846 80.2597 375.548 80.7017C374.251 81.1436 373.104 81.895 372.11 82.9558C371.158 83.9724 370.553 85.4088 370.293 87.2652L364.843 85.4088C365.189 83.8177 365.752 82.3812 366.53 81.0994C367.352 79.8177 368.39 78.7348 369.644 77.8508C370.899 76.9227 372.348 76.2155 373.991 75.7293C375.678 75.2431 377.538 75 379.57 75C382.382 75 384.717 75.4862 386.577 76.4586C388.48 77.4309 389.886 78.9337 390.794 80.9669C391.746 82.9558 392.221 85.5193 392.221 88.6575V96.2818C392.221 97.6519 392.243 99.1547 392.286 100.79C392.373 102.381 392.481 103.994 392.611 105.63C392.74 107.221 392.87 108.724 393 110.138H387.55C387.421 108.724 387.291 107.309 387.161 105.895C387.075 104.481 387.01 103.066 386.966 101.652H386.123C385.474 103.287 384.609 104.812 383.528 106.227C382.447 107.641 381.084 108.79 379.441 109.674C377.84 110.558 375.937 111 373.732 111ZM375.483 106.094C376.435 106.094 377.386 105.939 378.338 105.63C379.333 105.32 380.306 104.812 381.257 104.105C382.252 103.398 383.182 102.492 384.047 101.387C384.955 100.282 385.755 98.9558 386.447 97.4088V90.779L388.134 91.1105C387.442 91.8177 386.512 92.3481 385.345 92.7017C384.22 93.0553 382.966 93.3425 381.582 93.5635C380.198 93.7845 378.814 94.0276 377.43 94.2928C376.045 94.5138 374.77 94.8674 373.602 95.3536C372.477 95.7956 371.569 96.4365 370.877 97.2762C370.185 98.116 369.839 99.2652 369.839 100.724C369.839 102.492 370.358 103.84 371.396 104.768C372.434 105.652 373.796 106.094 375.483 106.094Z" fill="white"/>
<path d="M338 111V91.9811V75.883H344.266L343.654 88.1094H344.953C345.412 85.4377 346.125 83.1283 347.093 81.1811C348.061 79.234 349.334 77.717 350.914 76.6302C352.544 75.5434 354.556 75 356.95 75C357.46 75 358.045 75.0453 358.708 75.1358C359.37 75.1811 360.134 75.3396 361 75.6113L360.618 82.0642C359.854 81.7925 359.09 81.6113 358.326 81.5208C357.561 81.3849 356.823 81.317 356.11 81.317C354.123 81.317 352.391 81.883 350.914 83.0151C349.487 84.1472 348.29 85.6868 347.322 87.634C346.354 89.5359 345.565 91.6868 344.953 94.0868V111H338Z" fill="white"/>
<path d="M323.148 111V55H329.852V111H323.148ZM305 60.6848V55H348V60.6848H305Z" fill="white"/>
<path d="M262 111V89.1962V75.883H267.883L267.238 87.0226H268.457C269.127 84.2604 270.012 81.9962 271.112 80.2302C272.26 78.4642 273.695 77.1509 275.417 76.2906C277.139 75.4302 279.148 75 281.444 75C285.558 75 288.667 76.4038 290.771 79.2113C292.924 81.9736 294 86.117 294 91.6415V111H287.399V92.1849C287.399 88.2 286.729 85.2566 285.39 83.3547C284.099 81.4528 282.185 80.5019 279.65 80.5019C277.354 80.5019 275.393 81.1811 273.767 82.5396C272.188 83.8981 270.945 85.6868 270.036 87.9057C269.127 90.1245 268.625 92.5245 268.529 95.1057V111H262Z" fill="white"/>
<circle cx="200.5" cy="58.5" r="51" stroke="white" stroke-width="15"/>
</svg>
