<svg width="128" height="29" viewBox="0 0 128 29" fill="none" xmlns="http://www.w3.org/2000/svg">
<path d="M4.176 22L0.768 9.712H2.136L5.016 20.728H5.352L8.304 9.712H10.272L13.224 20.728H13.488L16.416 9.712H17.784L14.328 22H12.408L9.408 10.96H9.216L6.192 22H4.176ZM25.5728 22.288C24.6288 22.288 23.8048 22.136 23.1008 21.832C22.3968 21.528 21.8048 21.096 21.3248 20.536C20.8608 19.976 20.5088 19.32 20.2688 18.568C20.0288 17.8 19.9088 16.96 19.9088 16.048C19.9088 15.088 20.0288 14.208 20.2688 13.408C20.5088 12.608 20.8608 11.912 21.3248 11.32C21.7888 10.712 22.3568 10.248 23.0288 9.928C23.7168 9.592 24.5088 9.424 25.4048 9.424C26.1248 9.424 26.7888 9.552 27.3968 9.808C28.0208 10.048 28.5568 10.432 29.0048 10.96C29.4688 11.488 29.8208 12.168 30.0608 13C30.3008 13.816 30.4048 14.792 30.3728 15.928L20.7008 16.024V14.8L29.4848 14.728L29.0288 15.76C29.0928 14.656 28.9728 13.736 28.6688 13C28.3808 12.248 27.9568 11.68 27.3968 11.296C26.8368 10.912 26.1648 10.72 25.3808 10.72C24.5328 10.72 23.7968 10.936 23.1728 11.368C22.5648 11.784 22.0928 12.392 21.7568 13.192C21.4208 13.976 21.2528 14.928 21.2528 16.048C21.2528 17.6 21.6048 18.816 22.3088 19.696C23.0288 20.56 24.1328 20.992 25.6208 20.992C26.1648 20.992 26.6448 20.936 27.0608 20.824C27.4768 20.696 27.8368 20.52 28.1408 20.296C28.4448 20.056 28.7008 19.776 28.9088 19.456C29.1168 19.136 29.2768 18.776 29.3888 18.376L30.5887 18.688C30.4128 19.264 30.1728 19.776 29.8688 20.224C29.5808 20.672 29.2208 21.048 28.7888 21.352C28.3728 21.656 27.8928 21.888 27.3488 22.048C26.8208 22.208 26.2288 22.288 25.5728 22.288ZM33.8224 22V5.416H35.1904V22H33.8224ZM44.3691 22.288C43.2971 22.288 42.4011 22.104 41.6811 21.736C40.9611 21.368 40.3851 20.88 39.9531 20.272C39.5371 19.648 39.2331 18.968 39.0411 18.232C38.8491 17.48 38.7531 16.728 38.7531 15.976C38.7531 15.112 38.8651 14.288 39.0891 13.504C39.3131 12.72 39.6491 12.024 40.0971 11.416C40.5451 10.792 41.1131 10.304 41.8011 9.952C42.4891 9.6 43.2971 9.424 44.2251 9.424C45.1211 9.424 45.9131 9.584 46.6011 9.904C47.3051 10.224 47.8731 10.68 48.3051 11.272C48.7531 11.848 49.0251 12.544 49.1211 13.36L47.7771 13.648C47.7451 13.248 47.6091 12.824 47.3691 12.376C47.1291 11.912 46.7531 11.52 46.2411 11.2C45.7451 10.88 45.0891 10.72 44.2731 10.72C43.5691 10.72 42.9531 10.864 42.4251 11.152C41.9131 11.424 41.4891 11.8 41.1531 12.28C40.8171 12.76 40.5611 13.32 40.3851 13.96C40.2091 14.584 40.1211 15.264 40.1211 16C40.1211 16.944 40.2651 17.792 40.5531 18.544C40.8571 19.296 41.3211 19.896 41.9451 20.344C42.5691 20.776 43.3851 20.992 44.3931 20.992C45.0811 20.992 45.6811 20.88 46.1931 20.656C46.7211 20.432 47.1451 20.096 47.4651 19.648C47.8011 19.2 48.0171 18.632 48.1131 17.944L49.4331 18.256C49.3051 18.992 49.0731 19.624 48.7371 20.152C48.4171 20.664 48.0331 21.08 47.5851 21.4C47.1371 21.704 46.6411 21.928 46.0971 22.072C45.5531 22.216 44.9771 22.288 44.3691 22.288ZM57.4031 22.288C56.2671 22.288 55.2671 22.024 54.4031 21.496C53.5391 20.968 52.8591 20.224 52.3631 19.264C51.8831 18.288 51.6431 17.128 51.6431 15.784C51.6431 14.36 51.8991 13.184 52.4111 12.256C52.9391 11.312 53.6271 10.608 54.4751 10.144C55.3391 9.664 56.2831 9.424 57.3071 9.424C58.3791 9.424 59.3471 9.68 60.2111 10.192C61.0751 10.688 61.7631 11.424 62.2751 12.4C62.8031 13.36 63.0671 14.536 63.0671 15.928C63.0671 17.304 62.8191 18.464 62.3231 19.408C61.8271 20.352 61.1471 21.072 60.2831 21.568C59.4351 22.048 58.4751 22.288 57.4031 22.288ZM57.4511 20.992C58.3151 20.992 59.0591 20.784 59.6831 20.368C60.3231 19.936 60.8191 19.336 61.1711 18.568C61.5231 17.8 61.6991 16.912 61.6991 15.904C61.6991 14.864 61.5151 13.96 61.1471 13.192C60.7951 12.408 60.2911 11.8 59.6351 11.368C58.9791 10.936 58.2031 10.72 57.3071 10.72C56.4431 10.72 55.6911 10.92 55.0511 11.32C54.4111 11.72 53.9071 12.296 53.5391 13.048C53.1871 13.784 53.0111 14.68 53.0111 15.736C53.0111 17.336 53.4111 18.616 54.2111 19.576C55.0271 20.52 56.1071 20.992 57.4511 20.992ZM66.588 22V14.56V9.712H67.98L67.668 13.744H68.004C68.212 12.784 68.492 11.984 68.844 11.344C69.196 10.704 69.628 10.224 70.14 9.904C70.652 9.584 71.236 9.424 71.892 9.424C72.708 9.424 73.372 9.64 73.884 10.072C74.412 10.488 74.788 11.024 75.012 11.68C75.252 12.32 75.356 12.976 75.324 13.648H75.684C75.828 12.768 76.068 12.016 76.404 11.392C76.74 10.752 77.172 10.264 77.7 9.928C78.244 9.592 78.868 9.424 79.572 9.424C80.164 9.424 80.684 9.552 81.132 9.808C81.596 10.048 81.988 10.408 82.308 10.888C82.628 11.352 82.868 11.936 83.028 12.64C83.188 13.328 83.268 14.12 83.268 15.016V22H81.924V15.184C81.924 14.192 81.828 13.368 81.636 12.712C81.444 12.056 81.156 11.568 80.772 11.248C80.404 10.912 79.94 10.744 79.38 10.744C78.74 10.744 78.156 10.968 77.628 11.416C77.116 11.864 76.684 12.48 76.332 13.264C75.98 14.048 75.732 14.944 75.588 15.952V22H74.268V15.496C74.268 14.44 74.172 13.56 73.98 12.856C73.804 12.152 73.524 11.624 73.14 11.272C72.772 10.92 72.3 10.744 71.724 10.744C71.02 10.744 70.404 10.984 69.876 11.464C69.364 11.944 68.94 12.592 68.604 13.408C68.284 14.224 68.06 15.12 67.932 16.096V22H66.588ZM92.2759 22.288C91.3319 22.288 90.5079 22.136 89.8039 21.832C89.0999 21.528 88.5079 21.096 88.0279 20.536C87.5639 19.976 87.2119 19.32 86.9719 18.568C86.7319 17.8 86.6119 16.96 86.6119 16.048C86.6119 15.088 86.7319 14.208 86.9719 13.408C87.2119 12.608 87.5639 11.912 88.0279 11.32C88.4919 10.712 89.0599 10.248 89.7319 9.928C90.4199 9.592 91.2119 9.424 92.1079 9.424C92.8279 9.424 93.4919 9.552 94.0999 9.808C94.7239 10.048 95.2599 10.432 95.7079 10.96C96.1719 11.488 96.5239 12.168 96.7639 13C97.0039 13.816 97.1079 14.792 97.0759 15.928L87.4039 16.024V14.8L96.1879 14.728L95.7319 15.76C95.7959 14.656 95.6759 13.736 95.3719 13C95.0839 12.248 94.6599 11.68 94.0999 11.296C93.5399 10.912 92.8679 10.72 92.0839 10.72C91.2359 10.72 90.4999 10.936 89.8759 11.368C89.2679 11.784 88.7959 12.392 88.4599 13.192C88.1239 13.976 87.9559 14.928 87.9559 16.048C87.9559 17.6 88.3079 18.816 89.0119 19.696C89.7319 20.56 90.8359 20.992 92.3239 20.992C92.8679 20.992 93.3479 20.936 93.7639 20.824C94.1799 20.696 94.5399 20.52 94.8439 20.296C95.1479 20.056 95.4039 19.776 95.6119 19.456C95.8199 19.136 95.9799 18.776 96.0919 18.376L97.2919 18.688C97.1159 19.264 96.8759 19.776 96.5719 20.224C96.2839 20.672 95.9239 21.048 95.4919 21.352C95.0759 21.656 94.5959 21.888 94.0519 22.048C93.5239 22.208 92.9319 22.288 92.2759 22.288ZM110.307 22.216C109.331 22.216 108.595 21.944 108.099 21.4C107.603 20.856 107.355 20.056 107.355 19V10.936H105.483V9.712H106.587C106.923 9.712 107.163 9.648 107.307 9.52C107.451 9.376 107.539 9.152 107.571 8.848L107.763 6.928H108.699V9.712H112.491V10.936H108.699V19.024C108.699 19.712 108.851 20.208 109.155 20.512C109.459 20.8 109.891 20.944 110.451 20.944C110.755 20.944 111.083 20.904 111.435 20.824C111.787 20.728 112.163 20.528 112.563 20.224V21.712C112.131 21.888 111.723 22.016 111.339 22.096C110.971 22.176 110.627 22.216 110.307 22.216ZM120.309 22.288C119.173 22.288 118.173 22.024 117.309 21.496C116.445 20.968 115.765 20.224 115.269 19.264C114.789 18.288 114.549 17.128 114.549 15.784C114.549 14.36 114.805 13.184 115.317 12.256C115.845 11.312 116.533 10.608 117.381 10.144C118.245 9.664 119.189 9.424 120.213 9.424C121.285 9.424 122.253 9.68 123.117 10.192C123.981 10.688 124.669 11.424 125.181 12.4C125.709 13.36 125.973 14.536 125.973 15.928C125.973 17.304 125.725 18.464 125.229 19.408C124.733 20.352 124.053 21.072 123.189 21.568C122.341 22.048 121.381 22.288 120.309 22.288ZM120.357 20.992C121.221 20.992 121.965 20.784 122.589 20.368C123.229 19.936 123.725 19.336 124.077 18.568C124.429 17.8 124.605 16.912 124.605 15.904C124.605 14.864 124.421 13.96 124.053 13.192C123.701 12.408 123.197 11.8 122.541 11.368C121.885 10.936 121.109 10.72 120.213 10.72C119.349 10.72 118.597 10.92 117.957 11.32C117.317 11.72 116.813 12.296 116.445 13.048C116.093 13.784 115.917 14.68 115.917 15.736C115.917 17.336 116.317 18.616 117.117 19.576C117.933 20.52 119.013 20.992 120.357 20.992Z" fill="white"/>
</svg>
